<?xml version="1.0" encoding="UTF-8"?>
<svg width="585px" height="585px" viewBox="0 0 585 585" version="1.1" xmlns="http://www.w3.org/2000/svg" xmlns:xlink="http://www.w3.org/1999/xlink">
    <!-- Generator: Sketch 51.2 (57519) - http://www.bohemiancoding.com/sketch -->
    <title>icon/scoutred-icon</title>
    <desc>Created with Sketch.</desc>
    <defs></defs>
    <g id="icon/scoutred-icon" stroke="none" stroke-width="1" fill="none" fill-rule="evenodd">
        <g id="scoutred-icon">
            <path d="M292.010819,0 C130.753401,0 0,130.753401 0,292.010819 C0,453.268237 130.753401,584.021637 292.010819,584.021637 C453.268237,584.021637 584.021637,453.268237 584.021637,292.010819 C584.021637,130.753401 453.268237,0 292.010819,0 Z M292.010819,554.897199 C146.848485,554.897199 29.1244386,437.173152 29.1244386,292.010819 C29.1244386,146.848485 146.848485,29.1244386 292.010819,29.1244386 C437.173152,29.1244386 554.897199,146.848485 554.897199,292.010819 C554.897199,437.173152 437.173152,554.897199 292.010819,554.897199 Z" id="world" fill="#CC1717" fill-rule="nonzero"></path>
            <path d="M187.929272,287.872083 C175.359778,287.872083 165.089581,298.142279 165.089581,310.711774 L187.929272,345.967673 L210.768964,310.711774 C210.768964,298.142279 200.498767,287.872083 187.929272,287.872083 Z M187.929272,319.449105 C182.104385,319.449105 177.352502,314.697223 177.352502,308.872336 C177.352502,303.047448 182.104385,298.295566 187.929272,298.295566 C193.75416,298.295566 198.506042,303.047448 198.506042,308.872336 C198.506042,314.697223 193.75416,319.449105 187.929272,319.449105 Z" id="location" fill="#CC1717" fill-rule="nonzero"></path>
            <path d="M286.861005,113.419822 L519.18144,345.814387 C521.940597,334.164611 523.780035,322.208263 524.699754,310.098628 L508.904145,294.163928 L488.384167,273.629753 L508.911243,294.15683 L525.159614,277.908459 C524.393181,265.492251 522.70703,253.382616 520.101159,241.579554 L488.277478,273.403234 L307.641062,92.7500704 L337.383628,62.8474728 C325.273993,60.548175 313.011072,59.0153098 300.288291,58.5554502 L286.799077,72.0446639 L273.923009,59.1685963 C261.660088,60.0883154 249.703739,61.9277537 238.20725,64.686911 L266.197772,92.6774324 L189.743103,169.049348 L137.651294,116.804327 C130.293541,123.242361 123.395648,130.140255 116.957614,137.498007 L169.07503,189.615424 L72.489673,286.808819 L72.4946116,286.813766 C68.6734221,292.483905 69.2898722,300.13937 74.3439617,305.193459 C79.3924298,310.241927 87.0364894,310.862622 92.7047282,307.055543 L92.7104931,307.061317 L189.692067,210.385747 L274.236227,294.929822 L119.563485,449.58936 C126.154805,456.793826 133.205985,463.538433 140.563738,469.823181 L196.49644,413.903231 L307.646044,525.159614 C319.908965,524.393181 332.0186,522.553743 343.668375,519.947872 L217.206997,393.333208 L294.923262,315.616943 L446.370343,467.064023 C453.728096,460.625989 460.625989,453.728096 467.064023,446.370343 L412.047407,391.33334 L488.363982,315.038347 L467.66463,294.33314 L391.187196,370.493516 L210.487254,189.793574 L286.861005,113.419822 L286.861005,113.419822 Z" id="streets" fill="#444444" fill-rule="evenodd"></path>
        </g>
    </g>
</svg>